<svg xmlns="http://www.w3.org/2000/svg" xmlns:xlink="http://www.w3.org/1999/xlink" version="1.1" id="Layer_1" x="0px" y="0px" viewBox="0 0 315.1 315.1" style="enable-background:new 0 0 315.1 315.1;" xml:space="preserve">
<style type="text/css">
	.st0{fill:#FFFFFF;}
</style>
    <path class="st0" d="M303.4,21L5.5,135.9c-7.3,2.8-7.3,13.2,0.1,16L78.2,179l28.1,90.4c1.8,5.8,8.9,7.9,13.6,4.1l40.5-33  c4.2-3.5,10.3-3.6,14.7-0.4l73,53c5,3.7,12.1,0.9,13.4-5.2L315,30.8C316.2,24,309.7,18.5,303.4,21z M246.5,81.1l-117,108.8  c-4.1,3.8-6.8,9-7.5,14.5l-4,29.6c-0.5,3.9-6.1,4.3-7.2,0.5l-15.3-53.9c-1.8-6.1,0.8-12.7,6.2-16.1l141.9-87.4  C246.1,75.6,248.7,79.1,246.5,81.1z"/>
</svg>
