<svg xmlns="http://www.w3.org/2000/svg" xmlns:xlink="http://www.w3.org/1999/xlink" version="1.1" id="Layer_1" x="0px" y="0px" viewBox="0 0 631.9 666.4" style="enable-background:new 0 0 631.9 666.4;" xml:space="preserve">
<style type="text/css">
	.st0{fill:#FFFFFF;}
	.st1{fill:none;}
</style>
    <g>
	<path class="st0" d="M485.4,300.6c-0.3-46.8-12.5-85.8-36.3-116.3c23.7,30.4,35.8,69.4,36.2,116.3c0,1-0.1,1.9-0.4,2.8   C485.2,302.5,485.4,301.6,485.4,300.6z M476.7,309.1c-1.9-0.1-3.6-0.8-5-1.9C473,308.3,474.8,309,476.7,309.1z M471.1,306.7   L471.1,306.7c-0.4-0.4-0.7-0.8-1-1.2C470.3,305.9,470.7,306.3,471.1,306.7z M449.1,184.3c-1.3-1.7-2.6-3.3-4-5   C446.5,181,447.8,182.7,449.1,184.3z M411.3,228.3c-2.6-4.5-5.7-8.9-9.2-13C405.6,219.5,408.7,223.8,411.3,228.3z"/>
        <path class="st0" d="M560.6,65C544,49.8,477.1,1.2,328.1,0.5c0,0-175.8-10.6-261.5,68C18.9,116.2,2.1,186,0.4,272.6   c-1.8,86.6-4.1,248.7,152.3,292.7h0.1l-0.1,67.1c0,0-1,27.2,16.9,32.7c21.6,6.7,34.3-13.9,55-36.2c11.3-12.2,27-30.2,38.8-43.9   c106.9,9,189.2-11.6,198.5-14.6c21.6-7,143.8-22.7,163.6-184.8C646,218.5,615.6,112.7,560.6,65z M418.2,473.2   c-1,0.2-2.3,0.3-3.8,0.2c-3.8,0-7.5-0.5-11.2-1.7l-0.3-0.4c-13.3-3.7-35.4-13.1-72.3-33.4c-24-13.2-43.9-26.7-60.7-40.1   c-8.9-7-18-15-27.3-24.2L239,370c-9.2-9.3-17.2-18.4-24.2-27.3c-13.4-16.8-26.9-36.8-40.1-60.7c-20.3-36.9-29.7-59-33.4-72.3   l-0.4-0.3c-1.2-3.7-1.8-7.4-1.7-11.2c-0.1-1.5,0-2.8,0.2-3.8c1-8.6,5.3-17.4,12.7-26.3c0.1-0.1,0.1-0.1,0.2-0.2   c9.9-10.9,20.5-19.5,31.9-25.9c0.1,0,0.2-0.1,0.2-0.1c12-6.2,23.4-4.1,31.1,5.1c0.1,0.1,16.1,19.3,23,28.7   c6.5,8.9,15.3,23,19.7,30.9c7.9,14.2,3,28.7-4.8,34.7l-15.6,12.4c-7.9,6.4-6.9,18.2-6.9,18.2s23.2,87.7,109.8,109.8   c0,0,11.9,1,18.2-6.9l12.4-15.6c6-7.8,20.5-12.7,34.7-4.8c7.9,4.5,22.1,13.2,30.9,19.7c9.4,6.9,28.7,23,28.7,23   c9.2,7.7,11.3,19.1,5.1,31.1c0,0.1-0.1,0.2-0.1,0.2c-6.4,11.3-15,22-25.9,31.9c-0.1,0.1-0.1,0.1-0.2,0.2   C435.6,467.9,426.8,472.2,418.2,473.2z M311.3,119.3c24.5,0.2,47.1,4.4,67.7,12.5c20.6,8.2,39.3,20.4,55.8,36.5   c0.5,0.5,1,1,1.5,1.5c2,2,4,4.1,5.9,6.3c0.9,1.1,1.9,2.1,2.8,3.2l0,0c1.4,1.6,2.7,3.3,4,5c23.8,30.5,35.9,69.5,36.3,116.3   c0,1-0.2,1.9-0.5,2.8c0,0.1-0.1,0.2-0.1,0.3c0,0.1-0.1,0.2-0.1,0.2c-1.1,2.8-3.8,4.9-6.9,5.2c-0.1,0-0.3,0-0.4,0   c-0.2,0-0.3,0-0.4,0c-0.1,0-0.2,0-0.3,0c-1.9-0.1-3.6-0.8-5-1.9l-0.6-0.5h0c-0.4-0.4-0.7-0.8-1-1.2c-0.1-0.1-0.1-0.2-0.2-0.3   c-0.1-0.2-0.3-0.5-0.4-0.7c-0.1-0.1-0.1-0.2-0.2-0.4c-0.1-0.3-0.2-0.5-0.3-0.8c-0.2-0.8-0.4-1.6-0.4-2.5   c-0.4-50.8-15.6-91.3-45.4-120.3s-67.4-43.9-111.9-44.2c-4.7,0-8.4-3.8-8.4-8.5C302.9,123.1,306.7,119.3,311.3,119.3z M413.5,232.3   c-0.7-1.3-1.4-2.7-2.2-4c-2.6-4.5-5.7-8.8-9.2-13c0,0,0,0,0,0c-1-1.2-2-2.3-3.1-3.5c-17.6-19.2-41.7-29.6-73.5-31.9   c-4.6-0.3-8.1-4.4-7.8-9c0.3-4.6,4.4-8.1,9-7.8c35.8,2.5,64.3,15.1,84.7,37.3c20.4,22.2,30.4,50.2,29.6,83.1   c-0.1,4.6-3.9,8.2-8.4,8.2h-0.2c-4.7-0.1-8.3-4-8.2-8.6C424.7,263.9,421.2,247,413.5,232.3z M397.8,268.4c0.2,4.7-3.4,8.6-8,8.8   h-0.4c-4.5,0-8.2-3.5-8.4-8c-1.4-28.6-14.9-42.6-42.4-44.1c-4.6-0.2-8.2-4.2-8-8.9c0.2-4.6,4.2-8.2,8.9-8   C375.8,210.2,396,231,397.8,268.4z"/>
        <path class="st1" d="M397.8,268.4c0.2,4.7-3.4,8.6-8,8.8h-0.4c-4.5,0-8.2-3.5-8.4-8c-1.4-28.6-14.9-42.6-42.4-44.1   c-4.6-0.2-8.2-4.2-8-8.9c0.2-4.6,4.2-8.2,8.9-8C375.8,210.2,396,231,397.8,268.4z"/>
        <path class="st1" d="M441.1,283.5c-0.1,4.6-3.9,8.2-8.4,8.2h-0.2c-4.7-0.1-8.3-4-8.2-8.6c0.5-19.2-3.1-36-10.8-50.8   c-0.7-1.3-1.4-2.7-2.2-4c-2.6-4.5-5.7-8.8-9.2-13c0,0,0,0,0,0c-1-1.2-2-2.3-3.1-3.5c-17.6-19.2-41.7-29.6-73.5-31.9   c-4.6-0.3-8.1-4.4-7.8-9c0.3-4.6,4.4-8.1,9-7.8c35.8,2.5,64.3,15.1,84.7,37.3C431.9,222.6,441.9,250.6,441.1,283.5z"/>
        <path class="st1" d="M485.4,300.6c0,1-0.2,1.9-0.5,2.8c0,0.1-0.1,0.2-0.1,0.3c0,0.1-0.1,0.2-0.1,0.2c-1.2,2.8-3.7,4.8-6.9,5.2   c-0.1,0-0.3,0-0.4,0c-0.2,0-0.3,0-0.4,0c-0.1,0-0.2,0-0.3,0c-1.9-0.1-3.6-0.8-5-1.9l-0.6-0.5h0c-0.4-0.4-0.7-0.8-1-1.2   c-0.1-0.1-0.1-0.2-0.2-0.3c-0.1-0.2-0.3-0.5-0.4-0.7c-0.1-0.1-0.1-0.2-0.2-0.4c-0.1-0.3-0.2-0.5-0.3-0.8c-0.2-0.8-0.4-1.6-0.4-2.5   c-0.4-50.8-15.6-91.3-45.4-120.3s-67.4-43.9-111.9-44.2c-4.7,0-8.4-3.8-8.4-8.5c0-4.6,3.8-8.4,8.4-8.4c24.5,0.2,47.1,4.4,67.7,12.5   c20.6,8.2,39.3,20.4,55.8,36.5c0.5,0.5,1,1,1.5,1.5c2,2,4,4.1,5.9,6.3c0.9,1.1,1.9,2.1,2.8,3.2l0,0c1.4,1.6,2.7,3.3,4,5   C472.9,214.8,485.1,253.8,485.4,300.6z"/>
        <path class="st1" d="M470.7,428.2c0,0.1-0.1,0.2-0.1,0.2c-6.4,11.3-15,22-25.9,31.9c-0.1,0.1-0.1,0.1-0.2,0.2   c-8.9,7.4-17.7,11.7-26.3,12.7c-1,0.2-2.3,0.3-3.8,0.2c-3.8,0-7.5-0.5-11.2-1.7l-0.3-0.4c-13.3-3.7-35.4-13.1-72.3-33.4   c-24-13.2-43.9-26.7-60.7-40.1c-8.9-7-18-15-27.3-24.2L239,370c-9.2-9.3-17.2-18.4-24.2-27.3c-13.4-16.8-26.9-36.8-40.1-60.7   c-20.3-36.9-29.7-59-33.4-72.3l-0.4-0.3c-1.2-3.7-1.8-7.4-1.7-11.2c-0.1-1.5,0-2.8,0.2-3.8c1-8.6,5.3-17.4,12.7-26.3   c0.1-0.1,0.1-0.1,0.2-0.2c9.9-10.9,20.5-19.5,31.9-25.9c0.1,0,0.2-0.1,0.2-0.1c12-6.2,23.4-4.1,31.1,5.1c0.1,0.1,16.1,19.3,23,28.7   c6.5,8.9,15.3,23,19.7,30.9c7.9,14.2,3,28.7-4.8,34.7l-15.6,12.4c-7.9,6.4-6.9,18.2-6.9,18.2s23.2,87.7,109.8,109.8   c0,0,11.9,1,18.2-6.9l12.4-15.6c6-7.8,20.5-12.7,34.7-4.8c7.9,4.5,22.1,13.2,30.9,19.7c9.4,6.9,28.7,23,28.7,23   C474.8,404.8,476.9,416.2,470.7,428.2z"/>
</g>
</svg>
